<svg width="213" height="37" viewBox="0 0 213 37" fill="none" xmlns="http://www.w3.org/2000/svg">
<path d="M0.339355 13.4336C0.48584 11.3828 0.588379 9.31738 0.646973 7.2373C0.67627 5.15723 0.471191 2.93066 0.0317383 0.557617C1.76025 0.762695 3.53271 0.982422 5.34912 1.2168C7.19482 1.42187 9.08447 1.59766 11.0181 1.74414C12.9517 1.86133 14.9146 1.90527 16.9067 1.87598C18.9282 1.84668 20.979 1.7002 23.0591 1.43652L21.5649 14.2246H20.73C20.8472 12.7012 20.9351 11.3096 20.9937 10.0498C21.0815 8.76074 20.9497 7.64746 20.5981 6.70996C20.2466 5.74316 19.5728 4.9668 18.5767 4.38086C17.6099 3.76562 16.1304 3.35547 14.1382 3.15039C13.8452 4.9375 13.6401 6.95898 13.5229 9.21484C13.4351 11.4414 13.4058 13.6973 13.4351 15.9824C13.4937 18.2676 13.5962 20.4648 13.7427 22.5742C13.9185 24.6836 14.1382 26.4854 14.4019 27.9795C14.6362 29.2979 14.9438 30.3672 15.3247 31.1875C15.7056 32.0078 16.1304 32.667 16.5991 33.165C17.0679 33.6631 17.5659 34.0293 18.0933 34.2637C18.6206 34.498 19.1333 34.7031 19.6313 34.8789L19.2798 35.8896C18.3716 35.5381 17.3022 35.3037 16.0718 35.1865C14.8413 35.0693 13.6255 35.0547 12.4243 35.1426C11.2231 35.2305 10.0952 35.377 9.04053 35.582C8.01514 35.8164 7.22412 36.0801 6.66748 36.373L6.31592 35.1426C6.84326 34.8496 7.34131 34.498 7.81006 34.0879C8.27881 33.707 8.70361 33.1943 9.08447 32.5498C9.46533 31.876 9.77295 31.041 10.0073 30.0449C10.2417 29.0195 10.3882 27.7451 10.4468 26.2217C10.4761 25.2549 10.4761 24.1123 10.4468 22.7939C10.4468 21.4756 10.4175 20.0693 10.3589 18.5752C10.3003 17.0811 10.2271 15.5723 10.1392 14.0488C10.0806 12.4961 10.0073 11.0166 9.91943 9.61035C9.83154 8.2041 9.74365 6.92969 9.65576 5.78711C9.56787 4.64453 9.49463 3.72168 9.43604 3.01855C7.67822 3.10645 6.28662 3.38477 5.26123 3.85352C4.26514 4.29297 3.50342 4.9375 2.97607 5.78711C2.44873 6.60742 2.09717 7.63281 1.92139 8.86328C1.74561 10.0645 1.62842 11.5 1.56982 13.1699L0.339355 13.4336ZM23.4985 33.7803C24.1724 33.5459 24.729 33.2383 25.1685 32.8574C25.6079 32.4766 25.9448 32.0957 26.1792 31.7148C26.4722 31.2754 26.6626 30.8213 26.7505 30.3525C27.395 27.3643 27.7173 24.5225 27.7173 21.8271C27.7173 19.1025 27.5122 16.7734 27.1021 14.8398C26.9849 14.2246 26.7651 13.6533 26.4429 13.126C26.1792 12.6865 25.813 12.2764 25.3442 11.8955C24.8755 11.4854 24.2749 11.2217 23.5425 11.1045L23.4985 10.4014C24.0845 10.46 24.6265 10.5039 25.1245 10.5332C25.6519 10.5332 26.106 10.5332 26.4868 10.5332H27.7173C28.0688 10.5625 28.4204 10.5771 28.772 10.5771C29.0942 10.6064 29.4165 10.6211 29.7388 10.6211C30.0903 10.6211 30.4272 10.6504 30.7495 10.709C30.6616 11.7637 30.5884 12.8477 30.5298 13.9609C30.4712 15.0449 30.4272 16.0264 30.3979 16.9053C30.3394 17.9307 30.3101 18.9268 30.3101 19.8936C30.2515 20.9775 30.2075 22.1641 30.1782 23.4531C30.1489 24.7129 30.1636 25.9141 30.2222 27.0566C30.2808 28.1992 30.3833 29.21 30.5298 30.0889C30.6763 30.9385 30.9106 31.4951 31.2329 31.7588C31.4087 31.876 31.6431 31.9932 31.936 32.1104C32.1704 32.2275 32.478 32.3447 32.8589 32.4619C33.269 32.5791 33.7671 32.6963 34.353 32.8135L34.397 33.5605C33.811 33.5312 33.2397 33.5312 32.6831 33.5605C32.1558 33.5605 31.687 33.5605 31.2769 33.5605C30.7788 33.5898 30.3101 33.6045 29.8706 33.6045C29.2554 33.6338 28.5962 33.6924 27.8931 33.7803C27.3071 33.8389 26.6479 33.9121 25.9155 34C25.1831 34.0879 24.48 34.1904 23.8062 34.3076L23.4985 33.7803ZM28.0249 7.45703C27.1167 7.51562 26.4136 7.31055 25.9155 6.8418C25.4175 6.34375 25.1392 5.78711 25.0806 5.17188C25.022 4.55664 25.1831 3.98535 25.564 3.45801C25.9741 2.90137 26.6187 2.56445 27.4976 2.44727C28.4058 2.33008 29.1235 2.52051 29.6509 3.01855C30.2075 3.5166 30.5298 4.08789 30.6177 4.73242C30.7056 5.34766 30.5444 5.94824 30.1343 6.53418C29.7241 7.09082 29.021 7.39844 28.0249 7.45703ZM46.8774 11.6758C45.6177 11.6758 44.5483 11.9688 43.6694 12.5547C42.8198 13.1113 42.1313 13.873 41.604 14.8398C41.0767 15.8066 40.6958 16.9199 40.4614 18.1797C40.2271 19.4395 40.1392 20.7578 40.1978 22.1348C40.3149 25.2109 40.9302 27.6572 42.0435 29.4736C43.1567 31.2607 44.6509 32.1543 46.5259 32.1543C47.5806 32.1543 48.5181 31.9492 49.3384 31.5391C50.1587 31.1289 50.8472 30.6455 51.4038 30.0889C51.9897 29.5029 52.4438 28.9023 52.7661 28.2871C53.0884 27.6426 53.2642 27.1152 53.2935 26.7051H54.3481C54.2017 27.6133 53.8794 28.5361 53.3813 29.4736C52.9126 30.3818 52.2681 31.2168 51.4478 31.9785C50.6274 32.7109 49.6606 33.2969 48.5474 33.7363C47.4341 34.1758 46.189 34.3516 44.812 34.2637C43.0542 34.1465 41.5454 33.6484 40.2856 32.7695C39.0552 31.8613 38.0591 30.7334 37.2974 29.3857C36.5356 28.0088 36.0229 26.5 35.7593 24.8594C35.4956 23.1895 35.4663 21.5635 35.6714 19.9814C35.8472 18.3994 36.2134 16.9785 36.77 15.7188C37.3267 14.459 38.0151 13.3896 38.8354 12.5107C39.6558 11.6318 40.5786 10.958 41.604 10.4893C42.6587 10.0205 43.772 9.77148 44.9438 9.74219C45.8521 9.68359 46.8042 9.84473 47.8003 10.2256C48.7964 10.5771 49.7778 11.002 50.7446 11.5C51.6821 11.998 52.3999 12.1152 52.8979 11.8516C53.396 11.5879 53.8062 10.6943 54.1284 9.1709L55.0952 9.12695L54.8755 19.6299L53.8208 19.9814C53.7329 19.3076 53.5425 18.502 53.2495 17.5645C52.9565 16.5977 52.5317 15.6895 51.9751 14.8398C51.4185 13.9609 50.7153 13.2139 49.8657 12.5986C49.0161 11.9834 48.02 11.6758 46.8774 11.6758ZM69.5972 13.4336C69.7437 11.3828 69.8462 9.31738 69.9048 7.2373C69.9341 5.15723 69.729 2.93066 69.2896 0.557617C71.0181 0.762695 72.7905 0.982422 74.6069 1.2168C76.4526 1.42187 78.3423 1.59766 80.2759 1.74414C82.2095 1.86133 84.1724 1.90527 86.1646 1.87598C88.186 1.84668 90.2368 1.7002 92.3169 1.43652L90.8228 14.2246H89.9878C90.105 12.7012 90.1929 11.3096 90.2515 10.0498C90.3394 8.76074 90.2075 7.64746 89.856 6.70996C89.5044 5.74316 88.8306 4.9668 87.8345 4.38086C86.8677 3.76562 85.3882 3.35547 83.396 3.15039C83.103 4.9375 82.8979 6.95898 82.7808 9.21484C82.6929 11.4414 82.6636 13.6973 82.6929 15.9824C82.7515 18.2676 82.854 20.4648 83.0005 22.5742C83.1763 24.6836 83.396 26.4854 83.6597 27.9795C83.894 29.2979 84.2017 30.3672 84.5825 31.1875C84.9634 32.0078 85.3882 32.667 85.8569 33.165C86.3257 33.6631 86.8237 34.0293 87.3511 34.2637C87.8784 34.498 88.3911 34.7031 88.8892 34.8789L88.5376 35.8896C87.6294 35.5381 86.5601 35.3037 85.3296 35.1865C84.0991 35.0693 82.8833 35.0547 81.6821 35.1426C80.481 35.2305 79.353 35.377 78.2983 35.582C77.2729 35.8164 76.4819 36.0801 75.9253 36.373L75.5737 35.1426C76.1011 34.8496 76.5991 34.498 77.0679 34.0879C77.5366 33.707 77.9614 33.1943 78.3423 32.5498C78.7231 31.876 79.0308 31.041 79.2651 30.0449C79.4995 29.0195 79.646 27.7451 79.7046 26.2217C79.7339 25.2549 79.7339 24.1123 79.7046 22.7939C79.7046 21.4756 79.6753 20.0693 79.6167 18.5752C79.5581 17.0811 79.4849 15.5723 79.397 14.0488C79.3384 12.4961 79.2651 11.0166 79.1772 9.61035C79.0894 8.2041 79.0015 6.92969 78.9136 5.78711C78.8257 4.64453 78.7524 3.72168 78.6938 3.01855C76.936 3.10645 75.5444 3.38477 74.519 3.85352C73.5229 4.29297 72.7612 4.9375 72.2339 5.78711C71.7065 6.60742 71.355 7.63281 71.1792 8.86328C71.0034 10.0645 70.8862 11.5 70.8276 13.1699L69.5972 13.4336ZM114.377 32.374C114.29 32.7549 114.143 33.1797 113.938 33.6484C113.733 34.0879 113.44 34.4834 113.059 34.835C112.678 35.2158 112.209 35.4941 111.653 35.6699C111.125 35.875 110.496 35.8896 109.763 35.7139C109.031 35.5381 108.445 35.1279 108.005 34.4834C107.595 33.8389 107.302 33.0186 107.126 32.0225C106.863 32.4326 106.526 32.8721 106.116 33.3408C105.735 33.7803 105.266 34.1758 104.709 34.5273C104.182 34.9082 103.567 35.2012 102.864 35.4062C102.19 35.6406 101.443 35.7285 100.623 35.6699C99.5093 35.582 98.5132 35.2744 97.6343 34.7471C96.7847 34.249 96.0669 33.6045 95.481 32.8135C94.895 31.9932 94.4556 31.0703 94.1626 30.0449C93.8989 29.0195 93.8257 27.9502 93.9429 26.8369C94.0601 25.7236 94.353 24.7715 94.8218 23.9805C95.3198 23.1895 95.9351 22.5596 96.6675 22.0908C97.3999 21.5928 98.2349 21.2559 99.1724 21.0801C100.11 20.9043 101.077 20.8604 102.073 20.9482C103.391 21.0947 104.49 21.4902 105.369 22.1348C106.248 22.75 106.921 23.4385 107.39 24.2002C107.537 22.8525 107.581 21.417 107.522 19.8936C107.463 18.3408 107.229 16.9346 106.819 15.6748C106.409 14.3857 105.779 13.3311 104.929 12.5107C104.08 11.6611 102.922 11.251 101.458 11.2803C100.432 11.2803 99.5825 11.4707 98.9087 11.8516C98.2642 12.2031 97.7368 12.6279 97.3267 13.126C96.9458 13.624 96.6821 14.1367 96.5356 14.6641C96.3892 15.1621 96.3159 15.5576 96.3159 15.8506C96.3159 16.1436 96.4038 16.4805 96.5796 16.8613C96.7554 17.2129 97.0044 17.5498 97.3267 17.8721C97.6489 18.165 98.0298 18.3994 98.4692 18.5752C98.9087 18.751 99.4067 18.7949 99.9634 18.707C100.344 18.6484 100.681 18.5166 100.974 18.3115C101.267 18.1064 101.501 17.8721 101.677 17.6084C101.853 17.3447 101.97 17.0664 102.029 16.7734C102.117 16.4805 102.161 16.2021 102.161 15.9385C102.161 15.6455 102.073 15.3965 101.897 15.1914C101.721 14.957 101.516 14.7812 101.282 14.6641C101.047 14.5469 100.784 14.5176 100.491 14.5762C100.198 14.6055 99.9341 14.7373 99.6997 14.9717C99.9634 14.9424 100.227 15.001 100.491 15.1475C100.754 15.2646 100.886 15.5283 100.886 15.9385C100.886 16.2607 100.754 16.5098 100.491 16.6855C100.227 16.832 99.9341 16.8906 99.6118 16.8613C99.2896 16.832 98.9966 16.7002 98.7329 16.4658C98.4692 16.2021 98.3374 15.8066 98.3374 15.2793C98.3374 14.7812 98.5425 14.3564 98.9526 14.0049C99.3921 13.6533 99.8901 13.4775 100.447 13.4775C101.121 13.4775 101.736 13.7412 102.292 14.2686C102.878 14.7959 103.171 15.5283 103.171 16.4658C103.171 16.7881 103.083 17.1396 102.908 17.5205C102.761 17.8721 102.527 18.209 102.205 18.5312C101.882 18.8535 101.458 19.1318 100.93 19.3662C100.403 19.5713 99.7876 19.6738 99.0845 19.6738C98.3813 19.6738 97.7515 19.542 97.1948 19.2783C96.6382 18.9854 96.1694 18.6338 95.7886 18.2236C95.4077 17.7842 95.1147 17.3154 94.9097 16.8174C94.7339 16.29 94.646 15.792 94.646 15.3232C94.646 14.8545 94.7925 14.2686 95.0854 13.5654C95.3784 12.833 95.8325 12.1445 96.4478 11.5C97.0923 10.8555 97.8833 10.2988 98.8208 9.83008C99.7876 9.36133 100.93 9.12695 102.249 9.12695C105.793 9.12695 108.24 10.3721 109.587 12.8623C110.935 15.3232 111.155 19 110.247 23.8926C109.895 25.8555 109.705 27.4521 109.675 28.6826C109.646 29.9131 109.719 30.8945 109.895 31.627C110.071 32.3594 110.32 32.8721 110.642 33.165C110.994 33.458 111.36 33.6338 111.741 33.6924C112.063 33.751 112.371 33.7217 112.664 33.6045C112.898 33.5459 113.118 33.4141 113.323 33.209C113.557 32.9746 113.718 32.623 113.806 32.1543L114.377 32.374ZM106.951 30.1328C106.921 29.0781 106.965 27.9648 107.083 26.793C106.848 25.8848 106.365 25.0498 105.632 24.2881C104.929 23.4971 104.124 23.0283 103.215 22.8818C102.542 22.7646 101.838 22.7793 101.106 22.9258C100.403 23.043 99.7729 23.3066 99.2163 23.7168C98.6597 24.0977 98.2202 24.6396 97.8979 25.3428C97.5757 26.0459 97.4585 26.9102 97.5464 27.9355C97.6929 29.5176 98.1323 30.7188 98.8647 31.5391C99.6265 32.3594 100.74 32.7256 102.205 32.6377C103.318 32.5791 104.255 32.3008 105.017 31.8027C105.808 31.2754 106.453 30.7188 106.951 30.1328ZM126.638 11.6758C125.378 11.6758 124.309 11.9688 123.43 12.5547C122.581 13.1113 121.892 13.873 121.365 14.8398C120.837 15.8066 120.457 16.9199 120.222 18.1797C119.988 19.4395 119.9 20.7578 119.958 22.1348C120.076 25.2109 120.691 27.6572 121.804 29.4736C122.917 31.2607 124.412 32.1543 126.287 32.1543C127.341 32.1543 128.279 31.9492 129.099 31.5391C129.919 31.1289 130.608 30.6455 131.165 30.0889C131.75 29.5029 132.205 28.9023 132.527 28.2871C132.849 27.6426 133.025 27.1152 133.054 26.7051H134.109C133.962 27.6133 133.64 28.5361 133.142 29.4736C132.673 30.3818 132.029 31.2168 131.208 31.9785C130.388 32.7109 129.421 33.2969 128.308 33.7363C127.195 34.1758 125.95 34.3516 124.573 34.2637C122.815 34.1465 121.306 33.6484 120.046 32.7695C118.816 31.8613 117.82 30.7334 117.058 29.3857C116.296 28.0088 115.784 26.5 115.52 24.8594C115.256 23.1895 115.227 21.5635 115.432 19.9814C115.608 18.3994 115.974 16.9785 116.531 15.7188C117.087 14.459 117.776 13.3896 118.596 12.5107C119.417 11.6318 120.339 10.958 121.365 10.4893C122.419 10.0205 123.533 9.77148 124.705 9.74219C125.613 9.68359 126.565 9.84473 127.561 10.2256C128.557 10.5771 129.539 11.002 130.505 11.5C131.443 11.998 132.161 12.1152 132.659 11.8516C133.157 11.5879 133.567 10.6943 133.889 9.1709L134.856 9.12695L134.636 19.6299L133.582 19.9814C133.494 19.3076 133.303 18.502 133.01 17.5645C132.717 16.5977 132.292 15.6895 131.736 14.8398C131.179 13.9609 130.476 13.2139 129.626 12.5986C128.777 11.9834 127.781 11.6758 126.638 11.6758ZM149.358 13.4336C149.504 11.3828 149.607 9.31738 149.666 7.2373C149.695 5.15723 149.49 2.93066 149.05 0.557617C150.779 0.762695 152.551 0.982422 154.368 1.2168C156.213 1.42187 158.103 1.59766 160.037 1.74414C161.97 1.86133 163.933 1.90527 165.925 1.87598C167.947 1.84668 169.998 1.7002 172.078 1.43652L170.583 14.2246H169.749C169.866 12.7012 169.954 11.3096 170.012 10.0498C170.1 8.76074 169.968 7.64746 169.617 6.70996C169.265 5.74316 168.591 4.9668 167.595 4.38086C166.628 3.76562 165.149 3.35547 163.157 3.15039C162.864 4.9375 162.659 6.95898 162.542 9.21484C162.454 11.4414 162.424 13.6973 162.454 15.9824C162.512 18.2676 162.615 20.4648 162.761 22.5742C162.937 24.6836 163.157 26.4854 163.42 27.9795C163.655 29.2979 163.962 30.3672 164.343 31.1875C164.724 32.0078 165.149 32.667 165.618 33.165C166.086 33.6631 166.584 34.0293 167.112 34.2637C167.639 34.498 168.152 34.7031 168.65 34.8789L168.298 35.8896C167.39 35.5381 166.321 35.3037 165.09 35.1865C163.86 35.0693 162.644 35.0547 161.443 35.1426C160.242 35.2305 159.114 35.377 158.059 35.582C157.034 35.8164 156.243 36.0801 155.686 36.373L155.334 35.1426C155.862 34.8496 156.36 34.498 156.829 34.0879C157.297 33.707 157.722 33.1943 158.103 32.5498C158.484 31.876 158.792 31.041 159.026 30.0449C159.26 29.0195 159.407 27.7451 159.465 26.2217C159.495 25.2549 159.495 24.1123 159.465 22.7939C159.465 21.4756 159.436 20.0693 159.377 18.5752C159.319 17.0811 159.246 15.5723 159.158 14.0488C159.099 12.4961 159.026 11.0166 158.938 9.61035C158.85 8.2041 158.762 6.92969 158.674 5.78711C158.586 4.64453 158.513 3.72168 158.455 3.01855C156.697 3.10645 155.305 3.38477 154.28 3.85352C153.284 4.29297 152.522 4.9375 151.995 5.78711C151.467 6.60742 151.116 7.63281 150.94 8.86328C150.764 10.0645 150.647 11.5 150.588 13.1699L149.358 13.4336ZM182.009 9.52246C183.24 9.49316 184.456 9.74219 185.657 10.2695C186.858 10.7969 187.942 11.5879 188.909 12.6426C189.875 13.6973 190.652 14.9863 191.238 16.5098C191.853 18.0039 192.161 19.7178 192.161 21.6514C192.161 23.585 191.912 25.2988 191.414 26.793C190.945 28.2578 190.3 29.5029 189.48 30.5283C188.689 31.5537 187.766 32.3447 186.711 32.9014C185.686 33.4287 184.602 33.7363 183.459 33.8242C182.17 33.9121 180.911 33.707 179.68 33.209C178.45 32.6816 177.336 31.9053 176.34 30.8799C175.374 29.8252 174.583 28.5361 173.967 27.0127C173.352 25.46 173.03 23.6875 173 21.6953C172.942 19.6445 173.191 17.8721 173.748 16.3779C174.333 14.8545 175.066 13.5947 175.945 12.5986C176.824 11.6025 177.805 10.8555 178.889 10.3574C179.973 9.85938 181.013 9.58105 182.009 9.52246ZM183.855 30.9238C184.47 30.8652 185.129 30.6016 185.833 30.1328C186.536 29.6641 187.151 28.9756 187.678 28.0674C188.206 27.1299 188.586 25.9873 188.821 24.6396C189.084 23.2627 189.07 21.6514 188.777 19.8057C188.484 17.96 188.044 16.4658 187.458 15.3232C186.873 14.1807 186.228 13.3018 185.525 12.6865C184.851 12.042 184.163 11.6318 183.459 11.4561C182.756 11.251 182.141 11.1631 181.614 11.1924C180.764 11.251 180.046 11.5439 179.46 12.0713C178.875 12.5693 178.376 13.2285 177.966 14.0488C177.585 14.8398 177.292 15.748 177.087 16.7734C176.912 17.7988 176.809 18.8682 176.78 19.9814C176.721 21.3877 176.824 22.7939 177.087 24.2002C177.351 25.6064 177.805 26.8662 178.45 27.9795C179.065 29.0635 179.841 29.8545 180.779 30.3525C181.716 30.8506 182.742 31.041 183.855 30.9238ZM194.666 22.0908C194.753 20.3623 195.12 18.751 195.764 17.2568C196.438 15.7627 197.302 14.4883 198.357 13.4336C199.412 12.3496 200.598 11.5293 201.917 10.9727C203.264 10.416 204.656 10.2256 206.091 10.4014C207.527 10.5771 208.625 11.0166 209.387 11.7197C210.178 12.4229 210.735 13.2139 211.057 14.0928C211.379 14.9424 211.555 15.792 211.584 16.6416C211.614 17.4912 211.614 18.1504 211.584 18.6191C211.555 19.0586 211.497 19.542 211.409 20.0693C211.35 20.5967 211.277 21.124 211.189 21.6514C211.13 22.1494 211.101 22.6328 211.101 23.1016C211.101 23.541 211.145 23.9072 211.233 24.2002C210.5 23.9658 209.651 23.7168 208.684 23.4531C207.717 23.1602 206.663 22.9404 205.52 22.7939C204.407 22.6475 203.235 22.6035 202.004 22.6621C200.803 22.6914 199.602 22.8965 198.401 23.2773C198.372 24.3906 198.445 25.5039 198.621 26.6172C198.826 27.7012 199.148 28.7412 199.587 29.7373C199.968 30.5869 200.408 31.334 200.906 31.9785C201.404 32.623 201.931 33.1211 202.488 33.4727C203.074 33.7949 203.66 33.9707 204.246 34C204.861 34.0293 205.476 33.8535 206.091 33.4727C206.589 33.1211 206.97 32.6963 207.234 32.1982C207.468 31.7881 207.556 31.29 207.498 30.7041C207.468 30.1182 207.161 29.4443 206.575 28.6826L212.068 28.4189C211.863 29.0049 211.555 29.7373 211.145 30.6162C210.764 31.4951 210.237 32.3447 209.563 33.165C208.889 33.9854 208.054 34.6738 207.058 35.2305C206.062 35.7871 204.861 36.0361 203.455 35.9775C202.048 35.8896 200.774 35.4355 199.631 34.6152C198.518 33.8242 197.581 32.7842 196.819 31.4951C196.057 30.2061 195.486 28.7559 195.105 27.1445C194.724 25.5039 194.578 23.8193 194.666 22.0908ZM205.564 11.5439C204.744 11.4561 203.938 11.6611 203.147 12.1592C202.385 12.6572 201.682 13.375 201.038 14.3125C200.422 15.2207 199.895 16.3047 199.456 17.5645C199.016 18.8242 198.708 20.1426 198.533 21.5195C200.203 21.3145 201.755 21.2119 203.191 21.2119C204.626 21.1826 205.959 21.2705 207.19 21.4756C207.512 20.8018 207.805 19.9375 208.069 18.8828C208.333 17.7988 208.45 16.7441 208.42 15.7188C208.391 14.6641 208.157 13.7412 207.717 12.9502C207.307 12.1592 206.589 11.6904 205.564 11.5439Z" fill="white"/>
</svg>
